<svg width="34" height="24" viewBox="0 0 34 24" fill="none" xmlns="http://www.w3.org/2000/svg">
<g id="Payment method icon">
<rect x="0.5" y="0.5" width="33" height="23" rx="3.5" fill="white"/>
<path id="DinersClub" fill-rule="evenodd" clip-rule="evenodd" d="M15.8384 19.2998H18.4345C22.4869 19.2998 25.7162 16.0848 25.8429 12.1133V12.0503C25.7795 8.01572 22.4869 4.73766 18.4345 4.8007H15.5218C11.6594 4.92678 8.62004 8.20484 8.74668 12.1133C8.74668 16.0217 11.9126 19.2368 15.8384 19.2998ZM10.0131 12.0502C10.0131 8.77216 12.7358 6.06146 16.0284 6.06146C19.321 6.06146 22.0437 8.77216 22.0437 12.0502C22.0437 15.3283 19.321 18.039 16.0284 18.039C12.7358 18.039 10.0131 15.3283 10.0131 12.0502ZM16.9782 16.0848V8.07874C19.1943 8.64609 20.5874 10.8525 20.0175 13.0589C19.6376 14.5718 18.4978 15.7065 16.9782 16.0848ZM12.1026 11.0416C11.5327 13.248 12.8624 15.5174 15.0786 16.0848V8.07874C13.6223 8.45697 12.4825 9.59169 12.1026 11.0416Z" fill="#0079BE"/>
<rect x="0.5" y="0.5" width="33" height="23" rx="3.5" stroke="#F2F4F7"/>
</g>
</svg>
