<svg width="20" height="15" viewBox="0 0 20 15" fill="none" xmlns="http://www.w3.org/2000/svg">
<g id="JCB">
<path id="Vector" d="M14.9819 7.95424C15.5132 7.96578 16.0475 7.93078 16.5766 7.97242C17.1125 8.07239 17.2416 8.88363 16.7655 9.14931C16.4407 9.32434 16.0548 9.2145 15.7027 9.24537H14.9819V7.95424ZM16.8838 6.49284C17.0018 6.90946 16.6002 7.28353 16.1989 7.22615H14.9819C14.9905 6.83326 14.9652 6.40683 14.9943 6.03462C15.4818 6.04835 15.9739 6.00662 16.4586 6.05645C16.6668 6.10877 16.8411 6.27999 16.8838 6.49284ZM19.8127 0.314482C19.8353 1.11012 19.816 1.94781 19.8225 2.75959C19.821 6.05999 19.8256 9.3603 19.8199 12.6609C19.7985 13.8978 18.7023 14.9726 17.474 14.9972C16.2444 15.0022 15.0147 14.998 13.785 14.9994V10.0099C15.1248 10.003 16.4653 10.0239 17.8046 9.99941C18.4259 9.96041 19.1064 9.55047 19.1353 8.86676C19.2085 8.18009 18.5611 7.70514 17.9465 7.63013C17.7102 7.62399 17.7171 7.56126 17.9465 7.53389C18.5327 7.40718 18.9931 6.80044 18.8206 6.19279C18.6736 5.55368 17.9672 5.30631 17.3796 5.30754C16.1816 5.2994 14.9834 5.30641 13.7853 5.30404C13.793 4.37256 13.7692 3.44008 13.7982 2.50928C13.8931 1.2947 15.0169 0.293069 16.2279 0.3148C17.423 0.314618 18.6179 0.314618 19.8127 0.314573V0.314482Z" fill="url(#paint0_linear_937_12752)"/>
<path id="Vector_2" d="M0.246527 2.63481C0.277124 1.39987 1.378 0.333905 2.60476 0.315857C3.82975 0.312083 5.05492 0.315311 6.27991 0.31422C6.27654 4.44608 6.28654 8.5784 6.27486 12.71C6.22767 13.93 5.1388 14.9756 3.9254 14.9972C2.69809 15.0017 1.47065 14.9978 0.243299 14.9991V9.84135C1.43546 10.123 2.68564 10.2429 3.90185 10.0561C4.62884 9.93909 5.42426 9.58208 5.67039 8.82785C5.85151 8.18269 5.74954 7.50371 5.7765 6.84155V5.30378H3.67172C3.66226 6.32082 3.69109 7.33964 3.65649 8.35545C3.59975 8.97984 2.98142 9.37654 2.39254 9.35536C1.66223 9.36308 0.215021 8.82608 0.215021 8.82608C0.211384 6.92056 0.236207 4.53419 0.246527 2.63499V2.63481Z" fill="url(#paint1_linear_937_12752)"/>
<path id="Vector_3" d="M7.06482 5.92427C6.95403 5.94778 7.04254 5.54689 7.01422 5.39482C7.02177 4.43328 6.99844 3.4707 7.02709 2.50985C7.12174 1.29014 8.25416 0.286009 9.47013 0.314559H13.0511C13.0477 4.44642 13.0577 8.57874 13.0461 12.7104C12.9988 13.9303 11.9099 14.9759 10.6964 14.9976C9.46909 15.0022 8.24161 14.9983 7.01417 14.9995V9.34847C7.85245 10.0363 8.99178 10.1433 10.0361 10.1452C10.8235 10.1449 11.6062 10.0235 12.3708 9.84196V8.80669C11.5091 9.23613 10.4962 9.5089 9.54105 9.26218C8.87476 9.09633 8.39109 8.4524 8.40186 7.76478C8.32467 7.0497 8.74383 6.29475 9.44654 6.08216C10.319 5.80903 11.2699 6.01793 12.0877 6.37303C12.2629 6.46478 12.4408 6.57857 12.3707 6.2857V5.47197C11.0029 5.14654 9.54733 5.0268 8.17319 5.38081C7.77544 5.49301 7.38792 5.66318 7.06482 5.92436V5.92427Z" fill="url(#paint2_linear_937_12752)"/>
</g>
<defs>
<linearGradient id="paint0_linear_937_12752" x1="13.7438" y1="7.34295" x2="19.7844" y2="7.34295" gradientUnits="userSpaceOnUse">
<stop stop-color="#58B03A"/>
<stop offset="1" stop-color="#55B330"/>
</linearGradient>
<linearGradient id="paint1_linear_937_12752" x1="0.114863" y1="7.79727" x2="6.18093" y2="7.79727" gradientUnits="userSpaceOnUse">
<stop stop-color="#0F6EB6"/>
<stop offset="1" stop-color="#006DBA"/>
</linearGradient>
<linearGradient id="paint2_linear_937_12752" x1="7.00532" y1="7.48529" x2="13.05" y2="7.48529" gradientUnits="userSpaceOnUse">
<stop stop-color="#DE0D3D"/>
<stop offset="1" stop-color="#E30138"/>
</linearGradient>
</defs>
</svg>
