<svg width="12" height="14" viewBox="0 0 12 14" fill="none" xmlns="http://www.w3.org/2000/svg">
<g id="PayPal">
<path id="Fill 7" fill-rule="evenodd" clip-rule="evenodd" d="M3.61421 13.4483L3.83493 11.9992L3.34324 11.9873H0.9953L2.62703 1.2937C2.63212 1.26132 2.64855 1.23126 2.67255 1.20987C2.69667 1.18849 2.72741 1.17676 2.75956 1.17676H6.71854C8.03296 1.17676 8.93998 1.45939 9.41347 2.01734C9.63549 2.27908 9.77689 2.55267 9.84534 2.85364C9.9171 3.16951 9.91828 3.54685 9.8483 4.00715L9.84321 4.04063V4.33561L10.0652 4.46563C10.2521 4.56815 10.4008 4.68546 10.5147 4.81975C10.7046 5.04361 10.8274 5.32808 10.8793 5.66521C10.933 6.012 10.9153 6.42478 10.8274 6.89205C10.7261 7.42946 10.5624 7.89759 10.3412 8.28055C10.1378 8.63344 9.87868 8.92622 9.57094 9.15302C9.27715 9.36857 8.92816 9.53219 8.53352 9.63691C8.15107 9.7398 7.71505 9.79173 7.23684 9.79173H6.92875C6.70849 9.79173 6.49451 9.87372 6.32651 10.0207C6.15804 10.1708 6.04667 10.3758 6.01251 10.6L5.98922 10.7305L5.59919 13.2848L5.58158 13.3785C5.57685 13.4082 5.56881 13.423 5.55699 13.433C5.54647 13.4422 5.53133 13.4483 5.51655 13.4483H3.61421Z" fill="#28356A"/>
<path id="Fill 8" fill-rule="evenodd" clip-rule="evenodd" d="M10.2756 4.07471C10.2639 4.15279 10.2503 4.23258 10.2352 4.31458C9.71313 7.08522 7.92688 8.04237 5.64562 8.04237H4.48407C4.20506 8.04237 3.96991 8.25169 3.92652 8.53616L3.16338 13.5394C3.13513 13.7263 3.27439 13.8945 3.4567 13.8945H5.51688C5.76077 13.8945 5.96802 13.7113 6.00644 13.4627L6.02666 13.3545L6.41455 10.8103L6.4395 10.6708C6.47745 10.4213 6.68517 10.238 6.92907 10.238H7.23716C9.23314 10.238 10.7957 9.40044 11.2524 6.97659C11.4431 5.96408 11.3444 5.11862 10.8396 4.52402C10.6868 4.34476 10.4973 4.19592 10.2756 4.07471Z" fill="#298FC2"/>
<path id="Fill 9" fill-rule="evenodd" clip-rule="evenodd" d="M9.72925 3.84944C9.64945 3.82537 9.56717 3.80362 9.48275 3.78394C9.39787 3.76476 9.31098 3.74777 9.22148 3.73287C8.9083 3.68057 8.5651 3.65576 8.19754 3.65576H5.0945C5.01801 3.65576 4.94542 3.6736 4.88052 3.70586C4.73735 3.77698 4.63106 3.91701 4.60529 4.08845L3.94512 8.40999L3.92621 8.53597C3.9696 8.2515 4.20475 8.04218 4.48375 8.04218H5.64531C7.92657 8.04218 9.71282 7.08454 10.2349 4.31439C10.2505 4.2324 10.2636 4.15261 10.2753 4.07452C10.1433 4.00206 10.0002 3.94011 9.84618 3.88732C9.80811 3.87425 9.76886 3.86166 9.72925 3.84944Z" fill="#22284F"/>
<path id="Fill 11" fill-rule="evenodd" clip-rule="evenodd" d="M4.60545 4.08862C4.63122 3.91718 4.7375 3.77715 4.88067 3.70652C4.94605 3.67414 5.01817 3.6563 5.09466 3.6563H8.1977C8.56526 3.6563 8.90846 3.68123 9.22164 3.73353C9.31113 3.74831 9.39803 3.76542 9.48291 3.7846C9.56733 3.80415 9.64961 3.82603 9.72941 3.84998C9.76902 3.8622 9.80827 3.8749 9.84669 3.88749C10.0007 3.94028 10.1439 4.00272 10.276 4.07469C10.4313 3.05082 10.2747 2.3537 9.73911 1.72245C9.14858 1.0274 8.0829 0.72998 6.71918 0.72998H2.76008C2.48155 0.72998 2.24392 0.9393 2.20088 1.22426L0.551889 12.0279C0.519377 12.2416 0.678862 12.4344 0.887409 12.4344H3.33158L4.60545 4.08862Z" fill="#28356A"/>
</g>
</svg>
