<svg width="142" height="40" viewBox="0 0 142 40" fill="none" xmlns="http://www.w3.org/2000/svg">
<g id="Group 1">
<path id="Vector" d="M80.4241 11.5955C80.4241 8.93522 80.4241 6.27498 80.4241 3.61474C80.4241 3.46052 80.4241 3.30631 80.4241 3.15209C80.4481 1.42197 81.1132 0.718356 82.8481 0.699079C85.2385 0.670163 87.6289 0.612332 90.0144 0.713537C93.3445 0.853296 97.2144 3.36414 97.6048 7.87016C97.8072 10.1882 97.306 12.2702 95.7397 14.0292C95.4698 14.3328 95.5084 14.5931 95.653 14.9208C96.2891 16.3665 96.9204 17.8123 97.5421 19.2678C98.1879 20.7714 98.053 21.6244 96.2506 22.4919C95.8554 22.6846 95.4313 22.8437 95.0072 22.9497C93.9132 23.2244 93.1228 22.8388 92.665 21.8027C91.9951 20.2894 91.3445 18.7666 90.7084 17.234C90.5493 16.8581 90.3807 16.7473 89.9421 16.7762C88.8096 16.8533 87.6674 16.8388 86.5349 16.8196C86.0626 16.8099 85.8891 16.9641 85.9036 17.4461C85.9325 18.5449 85.918 19.6437 85.9084 20.7425C85.8987 21.9569 85.3879 22.5304 84.1927 22.7473C83.3831 22.8967 82.5831 22.8822 81.7927 22.6557C81.0216 22.4388 80.6072 21.9328 80.5156 21.128C80.3373 19.475 80.453 17.8172 80.4289 16.1641C80.4048 14.6412 80.4241 13.1184 80.4241 11.5955ZM85.9084 8.71354C85.9084 9.42679 85.918 10.1352 85.9036 10.8485C85.8987 11.1906 86.0192 11.3352 86.3759 11.3304C87.4939 11.3159 88.6072 11.3545 89.7252 11.3159C91.2337 11.2629 92.2216 10.1931 92.2024 8.68462C92.1879 7.26294 91.1228 6.21233 89.6433 6.18824C88.5638 6.16896 87.4891 6.19306 86.4096 6.1786C86.0385 6.17378 85.8939 6.31354 85.9036 6.68944C85.9228 7.36896 85.9084 8.03884 85.9084 8.71354Z" fill="white"/>
<path id="Vector_2" d="M45.8458 11.7111C45.8458 8.83878 45.8458 5.96649 45.8458 3.09902C45.8458 1.48456 46.2458 1.03155 47.8506 0.780948C48.5301 0.674924 49.2 0.756851 49.8506 0.935165C50.7663 1.18577 51.1422 1.72553 51.1566 2.85806C51.1807 4.78577 51.1663 6.71348 51.1663 8.64119C51.1663 9.52794 51.1663 9.52794 52.0723 9.52794C54.1542 9.52794 56.2361 9.51348 58.3181 9.53758C58.8723 9.5424 59.0602 9.35444 59.0554 8.80023C59.0313 7.02673 59.0458 5.25324 59.0458 3.47974C59.0506 1.34962 59.812 0.63155 61.9518 0.742393C62.2747 0.761671 62.6024 0.814683 62.9205 0.891791C63.9036 1.12794 64.2313 1.4942 64.3711 2.49661C64.4193 2.85806 64.453 3.22432 64.453 3.59059C64.4578 9.08456 64.453 14.5737 64.4578 20.0677C64.4578 20.4918 64.4337 20.9159 64.3373 21.3303C64.1735 22.005 63.7783 22.4677 63.0843 22.6267C62.1879 22.834 61.2964 22.8436 60.4 22.6026C59.653 22.4002 59.2819 21.9183 59.1518 21.181C59.012 20.3954 59.0458 19.605 59.041 18.8195C59.0361 17.4316 59.0265 16.0436 59.0458 14.6556C59.0506 14.1785 58.8723 14.0099 58.4 14.0147C56.2024 14.0291 54.0048 14.034 51.8072 14.0147C51.2819 14.0099 51.1518 14.2267 51.1566 14.7087C51.1759 16.5978 51.1614 18.487 51.1663 20.3761C51.1663 20.7424 51.1373 21.1038 51.0458 21.4653C50.8964 22.034 50.5542 22.4147 49.9807 22.5785C49.0169 22.8532 48.0434 22.8966 47.0795 22.593C46.1879 22.3135 45.8602 21.8316 45.8506 20.7376C45.8361 18.1159 45.841 15.4942 45.841 12.8725C45.8458 12.4822 45.8458 12.0966 45.8458 11.7111Z" fill="white"/>
<path id="Vector_3" d="M33.1711 0.342285C34.8096 0.404936 36.8771 0.780839 38.6217 2.23144C39.8361 3.23867 39.9952 3.9953 39.1518 5.31578C39.0361 5.49409 38.9108 5.66759 38.7855 5.83626C37.6096 7.38807 36.3566 7.54229 34.9108 6.25554C34.3952 5.79771 33.8554 5.52301 33.1711 5.45072C32.694 5.40253 32.2506 5.47482 31.812 5.60976C31.1518 5.81698 30.7084 6.27 30.6458 6.97361C30.5879 7.63867 30.9687 8.10132 31.5036 8.43867C32.1542 8.85313 32.8964 8.98325 33.6385 9.11819C34.9494 9.35433 36.2217 9.7206 37.4747 10.1736C39.3831 10.8628 40.4482 12.2411 40.8096 14.1833C41.2385 16.4676 40.9108 18.617 39.3735 20.4339C38.0723 21.9664 36.2988 22.7423 34.347 23.0459C31.547 23.4796 28.9879 22.858 26.7759 21.0266C26.0433 20.4146 25.4602 19.6772 25.0168 18.829C24.7036 18.2314 24.7325 17.6387 25.1084 17.0796C25.4939 16.5013 25.9277 15.9567 26.5108 15.5567C27.2915 15.0218 28.0337 15.0122 28.8289 15.5326C29.3976 15.9037 29.8843 16.3664 30.3566 16.8483C31.359 17.8748 32.5446 18.3278 33.9759 17.923C35.0265 17.6242 35.5807 16.7375 35.4072 15.6676C35.3446 15.2869 35.0988 15.0604 34.8048 14.8628C34.1301 14.4146 33.3638 14.2314 32.5879 14.0772C30.9879 13.7543 29.4699 13.2049 28.0433 12.429C26.3421 11.5086 25.5036 9.97602 25.2674 8.13024C24.8964 5.21457 25.9759 2.88204 28.5205 1.31096C29.5614 0.660357 31.0168 0.342285 33.1711 0.342285Z" fill="white"/>
<path id="Vector_4" d="M141.195 15.6675C141.267 19.6772 138.901 22.0627 135.214 22.9157C132.236 23.6049 129.47 23.0121 127.08 21.0362C126.217 20.323 125.47 19.4844 125.133 18.3663C125.089 18.2218 125.031 18.0531 125.065 17.9133C125.369 16.6941 126.164 15.841 127.248 15.2965C128.135 14.8531 128.892 15.2965 129.566 15.87C129.961 16.2073 130.337 16.5688 130.708 16.9302C131.735 17.9133 132.916 18.3133 134.308 17.8941C135.306 17.5953 135.86 16.6603 135.672 15.6435C135.61 15.2965 135.383 15.0651 135.104 14.8724C134.554 14.4965 133.933 14.2941 133.287 14.1639C131.749 13.8555 130.28 13.3639 128.853 12.7085C126.973 11.8459 125.894 10.3856 125.576 8.39044C125.055 5.16634 126.342 2.5061 129.248 1.0555C130.626 0.366342 132.135 0.236222 133.648 0.347065C135.557 0.491643 137.359 0.944655 138.887 2.22176C140.096 3.22899 140.251 3.98562 139.402 5.31092C139.373 5.35911 139.34 5.40731 139.306 5.4555C137.981 7.44104 136.757 7.6049 134.94 6.04345C134.063 5.29164 132.487 5.2049 131.542 5.8555C130.694 6.44345 130.689 7.62899 131.533 8.26514C132.251 8.80972 133.108 8.95911 133.961 9.11333C135.311 9.35911 136.627 9.72056 137.899 10.2314C140.096 11.1133 141.022 12.8435 141.19 15.0941C141.21 15.335 141.195 15.5663 141.195 15.6675Z" fill="white"/>
<path id="Vector_5" d="M10.8337 0.689161C13.6674 0.689161 16.5012 0.684342 19.3349 0.689161C20.8385 0.693981 21.3494 1.20482 21.3687 2.70362C21.3928 4.74217 20.9928 5.15663 18.9735 5.15663C17.4313 5.15663 15.8891 5.15663 14.347 5.15663C13.4843 5.15663 13.4795 5.15663 13.4795 6.00001C13.4795 10.6843 13.4795 15.3687 13.4747 20.053C13.4747 20.4 13.4409 20.747 13.3976 21.0892C13.2482 22.1928 12.9012 22.5735 11.8265 22.7807C11.1421 22.9157 10.4385 22.9109 9.7542 22.7952C8.60721 22.6024 8.12528 22.0193 8.11564 20.853C8.10118 19.253 8.11082 17.653 8.11082 16.053C8.11082 12.6602 8.10118 9.26748 8.12046 5.8747C8.12528 5.33013 7.9807 5.13735 7.41203 5.15181C5.63853 5.18555 3.86504 5.17109 2.09154 5.16145C0.795159 5.15663 0.371062 4.78073 0.183111 3.50362C0.0963636 2.92531 0.149376 2.34699 0.284315 1.78314C0.457809 1.05061 0.983111 0.713258 1.9807 0.703619C3.38793 0.684342 4.79516 0.693981 6.20239 0.693981C7.74938 0.684342 9.29154 0.684342 10.8337 0.689161C10.8337 0.684342 10.8337 0.684342 10.8337 0.689161Z" fill="white"/>
<path id="Vector_6" d="M111.06 0.689342C113.913 0.689342 116.766 0.684523 119.619 0.689342C121.094 0.694162 121.605 1.20019 121.639 2.66525C121.643 2.9544 121.653 3.24356 121.624 3.53272C121.504 4.68452 121.027 5.14235 119.86 5.15199C118.029 5.17127 116.198 5.18091 114.366 5.14717C113.798 5.13754 113.658 5.33031 113.658 5.87489C113.677 10.8098 113.667 15.7448 113.667 20.6797C113.667 22.193 113.06 22.8195 111.533 22.8484C110.998 22.858 110.453 22.9014 109.918 22.7809C108.867 22.5448 108.4 22.005 108.39 20.9255C108.376 19.3255 108.386 17.7255 108.386 16.1255C108.386 12.6942 108.376 9.26284 108.395 5.83151C108.4 5.29175 108.236 5.13754 107.706 5.14717C105.913 5.17609 104.121 5.16163 102.328 5.15681C101.055 5.15199 100.583 4.73272 100.439 3.47007C100.4 3.1279 100.4 2.77609 100.429 2.4291C100.549 1.14235 101.022 0.694162 102.328 0.689342C105.243 0.679704 108.149 0.689342 111.06 0.689342Z" fill="white"/>
<path id="Vector_7" d="M75.1181 11.8123C75.1181 14.7183 75.1229 17.6292 75.1181 20.5352C75.1181 22.034 74.694 22.5352 73.2048 22.7617C72.3952 22.887 71.5952 22.8243 70.8193 22.5159C70.3084 22.3135 70.0144 21.9424 69.9181 21.4075C69.8409 20.9737 69.7879 20.5352 69.7879 20.087C69.7928 14.4822 69.7879 8.87735 69.7928 3.27253C69.7928 1.45084 70.1976 1.00265 72 0.761686C72.5446 0.689396 73.0747 0.752047 73.6048 0.872529C74.6795 1.11831 75.1036 1.62434 75.1084 2.74241C75.1229 5.7641 75.1132 8.78578 75.1181 11.8123Z" fill="white"/>
<path id="Vector_8" d="M136.236 34.5349C135.879 35.0168 135.605 35.3975 135.316 35.7734C134.347 37.0457 133.017 37.0409 132.048 35.7686C131.735 35.359 131.431 34.9493 131.017 34.3951C131.017 35.6963 131.026 36.824 131.012 37.9518C130.998 38.906 130.458 39.3879 129.349 39.4698C128.289 39.5518 127.566 39.1084 127.402 38.2506C127.359 38.024 127.364 37.7879 127.364 37.5614C127.359 34.9012 127.364 32.2409 127.359 29.5855C127.359 28.8385 127.441 28.1349 128.26 27.8216C129.186 27.465 130.318 27.6963 130.858 28.3759C131.687 29.4168 132.496 30.4722 133.272 31.5469C133.595 31.9951 133.759 31.9855 134.082 31.5373C134.858 30.4578 135.687 29.4168 136.506 28.371C137.026 27.706 138.145 27.4746 139.104 27.8072C139.74 28.0289 140.034 28.5686 140.039 29.5566C140.043 32.1975 140.043 34.8385 140.039 37.4746C140.034 39.2337 138.559 40.0722 137.002 39.2048C136.622 38.9927 136.439 38.6602 136.381 38.2265C136.241 37.1903 136.318 36.1493 136.294 35.1084C136.284 34.9638 136.26 34.8192 136.236 34.5349Z" fill="white"/>
<path id="Vector_9" d="M116.067 27.5278C119.422 27.5327 122.212 30.3182 122.217 33.6772C122.222 37.0555 119.412 39.8507 116.019 39.8411C112.626 39.8363 109.879 37.0507 109.894 33.629C109.904 30.2652 112.675 27.5278 116.067 27.5278ZM113.783 33.7013C113.793 34.8917 114.858 35.9567 116.048 35.9567C117.224 35.9567 118.299 34.8917 118.323 33.6965C118.347 32.511 117.21 31.3881 116.019 31.417C114.819 31.4459 113.773 32.511 113.783 33.7013Z" fill="white"/>
<path id="Vector_10" d="M84.5783 27.9902C87.7012 27.9902 90.3036 30.6023 90.2747 33.7107C90.2458 36.8191 87.6771 39.383 84.5831 39.383C81.3927 39.383 78.8915 36.8529 78.8915 33.6336C78.9012 30.5107 81.4361 27.9902 84.5783 27.9902Z" fill="#30C0CB"/>
<path id="Vector_11" d="M101.773 39.6241C98.0964 39.6193 95.3638 36.906 95.3446 33.5373C95.3301 30.5398 97.5421 28.0626 100.564 27.6337C102.178 27.4024 103.614 27.8024 104.935 28.7036C105.73 29.2434 105.884 29.9855 105.402 30.8096C105.306 30.9735 105.186 31.1277 105.065 31.2771C104.347 32.1735 103.745 32.294 102.771 31.6626C102.019 31.1759 101.248 31.1422 100.458 31.4651C99.1952 31.9855 98.6891 33.4169 99.2964 34.6554C99.8506 35.7831 101.402 36.2651 102.52 35.653C102.689 35.5614 102.843 35.4458 103.012 35.3542C103.735 34.9542 104.246 35.0361 104.824 35.6289C105.108 35.9229 105.325 36.2651 105.484 36.641C105.798 37.3735 105.653 37.9422 105.017 38.4193C103.966 39.2145 102.771 39.5759 101.773 39.6241Z" fill="white"/>
</g>
</svg>
