<svg width="170" height="48" viewBox="0 0 170 48" fill="none" xmlns="http://www.w3.org/2000/svg">
<path d="M96.655 13.5341C96.655 10.3418 96.655 7.14955 96.655 3.95726C96.655 3.7722 96.655 3.58714 96.655 3.40208C96.684 1.32594 97.4847 0.481601 99.5735 0.458468C102.451 0.42377 105.329 0.354372 108.201 0.475818C112.21 0.643529 116.869 3.65654 117.339 9.06377C117.583 11.8455 116.98 14.3438 115.094 16.4546C114.769 16.8189 114.815 17.1312 114.989 17.5245C115.755 19.2594 116.515 20.9944 117.264 22.7409C118.041 24.5452 117.879 25.5688 115.709 26.6098C115.233 26.8411 114.723 27.032 114.212 27.1592C112.895 27.4888 111.943 27.0262 111.392 25.7828C110.586 23.9669 109.802 22.1394 109.037 20.3004C108.845 19.8493 108.642 19.7163 108.114 19.751C106.751 19.8435 105.375 19.8262 104.012 19.803C103.443 19.7915 103.235 19.9765 103.252 20.5548C103.287 21.8734 103.269 23.192 103.258 24.5105C103.246 25.9679 102.631 26.6561 101.192 26.9163C100.217 27.0956 99.2543 27.0782 98.3028 26.8064C97.3745 26.5462 96.8755 25.9389 96.7653 24.9732C96.5506 22.9895 96.6898 21.0001 96.6608 19.0165C96.6376 17.1891 96.655 15.3616 96.655 13.5341ZM103.258 10.0758C103.258 10.9317 103.269 11.7818 103.252 12.6377C103.246 13.0483 103.391 13.2218 103.821 13.2161C105.167 13.1987 106.507 13.245 107.853 13.1987C109.669 13.1351 110.858 11.8512 110.835 10.0411C110.818 8.33509 109.536 7.07437 107.754 7.04545C106.455 7.02232 105.161 7.05124 103.861 7.03389C103.414 7.02811 103.24 7.19582 103.252 7.6469C103.275 8.46232 103.258 9.27196 103.258 10.0758Z" fill="black"/>
<path d="M55.0311 13.6729C55.0311 10.2262 55.0311 6.77943 55.0311 3.33846C55.0311 1.40112 55.5127 0.857501 57.4448 0.556778C58.2629 0.429549 59.0694 0.527863 59.8526 0.741839C60.955 1.04256 61.4076 1.69027 61.425 3.04931C61.454 5.36256 61.4366 7.67581 61.4366 9.98907C61.4366 11.0532 61.4366 11.0532 62.5274 11.0532C65.0339 11.0532 67.5404 11.0358 70.0468 11.0647C70.7141 11.0705 70.9404 10.845 70.9346 10.1799C70.9055 8.05172 70.9229 5.92352 70.9229 3.79533C70.9287 1.23919 71.8455 0.377501 74.4216 0.510513C74.8103 0.533646 75.2049 0.59726 75.5878 0.689791C76.7714 0.973164 77.166 1.41268 77.3342 2.61557C77.3922 3.04931 77.4328 3.48883 77.4328 3.92834C77.4386 10.5211 77.4328 17.1081 77.4387 23.7009C77.4387 24.2098 77.4096 24.7187 77.2936 25.216C77.0963 26.0257 76.6206 26.5809 75.7851 26.7717C74.7059 27.0204 73.6325 27.032 72.5533 26.7428C71.654 26.4999 71.2072 25.9216 71.0506 25.0368C70.8823 24.0941 70.9229 23.1457 70.9171 22.203C70.9113 20.5375 70.8997 18.872 70.9229 17.2064C70.9287 16.6339 70.7141 16.4315 70.1455 16.4373C67.4997 16.4546 64.854 16.4604 62.2083 16.4373C61.5759 16.4315 61.4192 16.6917 61.425 17.27C61.4482 19.537 61.4308 21.804 61.4366 24.071C61.4366 24.5105 61.4018 24.9442 61.2916 25.378C61.1117 26.0604 60.6997 26.5173 60.0093 26.7139C58.8489 27.0435 57.6769 27.0956 56.5165 26.7312C55.4431 26.3958 55.0485 25.8175 55.0369 24.5047C55.0195 21.3587 55.0253 18.2127 55.0253 15.0667C55.0311 14.5982 55.0311 14.1356 55.0311 13.6729Z" fill="black"/>
<path d="M39.7659 0.0305176C41.7386 0.105698 44.2277 0.556783 46.3281 2.29751C47.7902 3.50618 47.9816 4.41413 46.9663 5.99871C46.827 6.21269 46.6762 6.42088 46.5253 6.62329C45.1096 8.48546 43.6011 8.67052 41.8605 7.12642C41.2397 6.57702 40.5898 6.24738 39.7659 6.16064C39.1915 6.10281 38.6578 6.18955 38.1298 6.35148C37.3349 6.60015 36.8011 7.14377 36.7257 7.98811C36.6561 8.78618 37.1144 9.34136 37.7584 9.74618C38.5417 10.2435 39.4352 10.3997 40.3287 10.5616C41.9069 10.845 43.4386 11.2845 44.9472 11.8281C47.2448 12.6551 48.527 14.3091 48.9622 16.6397C49.4786 19.3809 49.084 21.9601 47.2332 24.1404C45.6666 25.9794 43.5315 26.9105 41.1816 27.2748C37.8107 27.7953 34.7298 27.0493 32.0666 24.8517C31.1847 24.1173 30.4827 23.2324 29.9489 22.2146C29.5718 21.4975 29.6066 20.7862 30.0591 20.1153C30.5233 19.4214 31.0455 18.7679 31.7475 18.2879C32.6874 17.6459 33.581 17.6344 34.5383 18.2589C35.2229 18.7042 35.809 19.2594 36.3776 19.8377C37.5844 21.0695 39.0117 21.6132 40.7349 21.1274C41.9997 20.7688 42.667 19.7047 42.4581 18.4209C42.3827 17.964 42.0868 17.6922 41.7328 17.4551C40.9206 16.9173 39.998 16.6975 39.0639 16.5124C37.1376 16.125 35.31 15.4657 33.5926 14.5346C31.5444 13.43 30.5349 11.591 30.2506 9.37606C29.8038 5.87726 31.1035 3.07823 34.167 1.19293C35.4202 0.417987 37.1724 0.0305176 39.7659 0.0305176Z" fill="black"/>
<path d="M169.819 18.4266C169.906 23.2382 167.057 26.1009 162.618 27.1245C159.033 27.9515 155.702 27.2401 152.825 24.869C151.786 24.0131 150.887 23.0069 150.481 21.6652C150.428 21.4917 150.359 21.2893 150.399 21.1216C150.765 19.6584 151.722 18.6348 153.028 17.9813C154.095 17.4493 155.006 17.9813 155.818 18.6695C156.294 19.0743 156.747 19.5081 157.194 19.9418C158.429 21.1216 159.851 21.6016 161.528 21.0984C162.729 20.7399 163.396 19.618 163.17 18.3977C163.094 17.9813 162.822 17.7037 162.485 17.4724C161.824 17.0213 161.075 16.7784 160.298 16.6223C158.447 16.2522 156.677 15.6623 154.96 14.8758C152.697 13.8406 151.397 12.0883 151.014 9.69411C150.388 5.82519 151.937 2.63291 155.436 0.892184C157.095 0.065196 158.911 -0.0909482 160.733 0.0420639C163.03 0.215558 165.2 0.759172 167.04 2.2917C168.496 3.50038 168.682 4.40833 167.66 5.99869C167.626 6.05652 167.585 6.11435 167.544 6.17218C165.949 8.55483 164.475 8.75146 162.288 6.87773C161.232 5.97556 159.335 5.87146 158.197 6.65218C157.176 7.35772 157.17 8.78037 158.186 9.54375C159.05 10.1972 160.083 10.3765 161.11 10.5616C162.735 10.8565 164.318 11.2903 165.85 11.9033C168.496 12.9616 169.61 15.0377 169.813 17.7384C169.842 18.0218 169.819 18.2994 169.819 18.4266Z" fill="black"/>
<path d="M12.8735 0.446883C16.2851 0.446883 19.6967 0.4411 23.1083 0.446883C24.9185 0.452666 25.5335 1.06568 25.5567 2.86423C25.5857 5.3105 25.1042 5.80785 22.6731 5.80785C20.8165 5.80785 18.9598 5.80785 17.1031 5.80785C16.0646 5.80785 16.0588 5.80785 16.0588 6.81989C16.0588 12.4411 16.0588 18.0623 16.053 23.6835C16.053 24.0999 16.0124 24.5163 15.9601 24.9269C15.7803 26.2512 15.3625 26.7081 14.0687 26.9568C13.2448 27.1187 12.3977 27.1129 11.5738 26.9741C10.1929 26.7428 9.6127 26.043 9.6011 24.6435C9.58369 22.7235 9.59529 20.8035 9.59529 18.8835C9.59529 14.8122 9.58369 10.7409 9.6069 6.66953C9.6127 6.01604 9.43864 5.78471 8.754 5.80206C6.61885 5.84255 4.48369 5.8252 2.34854 5.81363C0.787789 5.80785 0.277209 5.35676 0.0509291 3.82423C-0.0535078 3.13026 0.0103148 2.43628 0.172772 1.75965C0.381646 0.880618 1.01407 0.475799 2.21509 0.464233C3.90929 0.4411 5.60349 0.452667 7.29769 0.452667C9.16014 0.4411 11.0168 0.4411 12.8735 0.446883Z" fill="black"/>
<path d="M133.544 0.446883C136.979 0.446883 140.414 0.441099 143.849 0.446883C145.624 0.452666 146.239 1.05989 146.28 2.81797C146.286 3.16495 146.297 3.51194 146.263 3.85893C146.117 5.2411 145.543 5.7905 144.139 5.80206C141.934 5.82519 139.729 5.83676 137.525 5.79628C136.84 5.78471 136.672 6.01604 136.672 6.66953C136.695 12.5915 136.683 18.5134 136.683 24.4353C136.683 26.2512 135.952 27.003 134.113 27.0377C133.469 27.0493 132.813 27.1013 132.169 26.9568C130.905 26.6734 130.342 26.0257 130.33 24.7303C130.313 22.8103 130.324 20.8903 130.324 18.9703C130.324 14.8527 130.313 10.7351 130.336 6.61748C130.342 5.96977 130.144 5.78471 129.506 5.79628C127.348 5.83098 125.189 5.81363 123.031 5.80785C121.499 5.80206 120.931 5.29893 120.757 3.78375C120.71 3.37315 120.71 2.95098 120.745 2.53459C120.89 0.990497 121.459 0.452666 123.031 0.446883C126.536 0.435316 130.04 0.446883 133.544 0.446883Z" fill="black"/>
<path d="M90.2728 13.7944C90.2728 17.2816 90.2786 20.7746 90.2728 24.2618C90.2728 26.0604 89.7622 26.6618 87.9694 26.9336C86.9946 27.084 86.0315 27.0088 85.0974 26.6387C84.4823 26.3958 84.1284 25.9505 84.0124 25.3086C83.9195 24.7881 83.8557 24.2618 83.8557 23.724C83.8615 16.9982 83.8557 10.2724 83.8615 3.54665C83.8615 1.36063 84.3489 0.822796 86.5189 0.533639C87.1745 0.446892 87.8127 0.522073 88.4509 0.666652C89.7448 0.961591 90.2554 1.56882 90.2612 2.91051C90.2728 6.53653 90.267 10.1626 90.2728 13.7944C90.267 13.7944 90.267 13.7944 90.2728 13.7944Z" fill="black"/>
<path d="M163.849 41.0618C163.419 41.6401 163.088 42.097 162.74 42.5481C161.574 44.0748 159.973 44.069 158.807 42.5423C158.429 42.0507 158.064 41.5592 157.565 40.8941C157.565 42.4555 157.577 43.8088 157.559 45.162C157.542 46.3071 156.892 46.8854 155.557 46.9837C154.281 47.082 153.411 46.55 153.213 45.5206C153.161 45.2488 153.167 44.9654 153.167 44.6936C153.161 41.5013 153.167 38.309 153.161 35.1225C153.161 34.2261 153.26 33.3818 154.246 33.0059C155.36 32.578 156.724 32.8555 157.373 33.671C158.371 34.9201 159.346 36.1866 160.28 37.4763C160.669 38.0141 160.866 38.0025 161.255 37.4647C162.189 36.1693 163.187 34.9201 164.173 33.6652C164.8 32.8671 166.146 32.5895 167.301 32.9886C168.067 33.2546 168.421 33.9023 168.426 35.0878C168.432 38.257 168.432 41.4261 168.426 44.5895C168.421 46.7004 166.645 47.7066 164.771 46.6657C164.313 46.4112 164.092 46.0122 164.023 45.4917C163.854 44.2483 163.947 42.9992 163.918 41.75C163.907 41.5765 163.883 41.403 163.849 41.0618Z" fill="black"/>
<path d="M139.573 32.6589C143.611 32.6647 146.97 36.0074 146.976 40.0382C146.982 44.0922 143.599 47.4464 139.515 47.4348C135.43 47.4291 132.123 44.0864 132.14 39.9804C132.152 35.938 135.482 32.6532 139.573 32.6589ZM136.823 40.0613C136.834 41.4898 138.116 42.7679 139.55 42.7679C140.965 42.7679 142.259 41.4898 142.288 40.0556C142.317 38.6329 140.948 37.2854 139.515 37.3201C138.07 37.3548 136.811 38.6329 136.823 40.0613Z" fill="black"/>
<path d="M101.662 33.2141C105.422 33.2141 108.555 36.3486 108.52 40.0787C108.485 43.8088 105.393 46.8854 101.668 46.8854C97.827 46.8854 94.8158 43.8493 94.8158 39.9862C94.8216 36.2329 97.8734 33.2141 101.662 33.2141Z" fill="#30C0CB"/>
<path d="M122.358 47.1688C117.931 47.163 114.641 43.9071 114.618 39.8647C114.601 36.2676 117.264 33.2951 120.902 32.7804C122.845 32.5028 124.574 32.9828 126.164 34.0642C127.122 34.7119 127.307 35.6025 126.727 36.5914C126.611 36.7881 126.466 36.9731 126.321 37.1524C125.456 38.2281 124.731 38.3727 123.559 37.6151C122.654 37.031 121.726 36.9905 120.774 37.378C119.254 38.0025 118.645 39.7201 119.376 41.2064C120.043 42.5596 121.911 43.138 123.257 42.4035C123.46 42.2936 123.646 42.1548 123.849 42.0449C124.72 41.5649 125.335 41.6633 126.031 42.3746C126.373 42.7274 126.634 43.138 126.826 43.589C127.203 44.4681 127.029 45.1505 126.263 45.723C124.998 46.6772 123.559 47.111 122.358 47.1688Z" fill="black"/>
</svg>
